<svg xmlns="http://www.w3.org/2000/svg" width="45.12" height="23.46" viewBox="0 0 45.12 23.46"><defs><style>.cls-1{fill:#9d9d9c;}</style></defs><g id="레이어_2" data-name="레이어 2"><g id="레이어_1-2" data-name="레이어 1"><path class="cls-1" d="M21.94,13H0v2.5H5.32V23a.46.46,0,0,0,.43.45H6.82a1.63,1.63,0,0,0,1.51-1.7v-6.3H14V23a.46.46,0,0,0,.43.45h1.07A1.63,1.63,0,0,0,17,21.76v-6.3h3.93a1.32,1.32,0,0,0,1.39-1.24v-.91A.38.38,0,0,0,21.94,13Z"/><path class="cls-1" d="M18.27,10.47h.23a1.27,1.27,0,0,0,1.34-1.19V8.42a.37.37,0,0,0-.35-.33H16.62V3h1.61a1.24,1.24,0,0,0,1.32-1.18V1a.38.38,0,0,0-.34-.34H2.86V3H5.61V8.09h-3v2.38h15.7ZM13.68,8.09H8.54V3h5.14Z"/><path class="cls-1" d="M37.74,12.69c.71,0,1.06-.69,1.06-1.7,0-.49-.18-.74-.54-.74H29.11c-.39,0-.58-.17-.58-.52V7.87h7.06c1.25,0,1.86-.94,1.86-3.29V2.08c0-.77-.39-1.16-1.21-1.16H25.63V3.25h8.74V5.09c0,.45-.14.51-.42.51H25.63v4.67a2.19,2.19,0,0,0,2.46,2.42Z"/><path class="cls-1" d="M41.23,15.07h1.13a1.69,1.69,0,0,0,1.56-1.76V12.08c0-.06,0-.1,0-.16V0H40.81V14.63A.46.46,0,0,0,41.23,15.07Z"/><path class="cls-1" d="M45.1,21.07c0-.05-.1-.12-.28-.15a22.79,22.79,0,0,1-3.6-1.24,11.43,11.43,0,0,1-2-1.31A5.82,5.82,0,0,1,38,16.84a3.71,3.71,0,0,1-.46-1.8v-.77H34.43V15a3.6,3.6,0,0,1-.46,1.8,5.82,5.82,0,0,1-1.27,1.53,11.43,11.43,0,0,1-2,1.31,22.79,22.79,0,0,1-3.6,1.24c-.18,0-.26.1-.28.15a.18.18,0,0,0,0,.16l1.1,2.05H28a17.07,17.07,0,0,0,5-2A11.17,11.17,0,0,0,36,19a10.94,10.94,0,0,0,2.93,2.34,17.07,17.07,0,0,0,5,2H44l1.1-2.05A.18.18,0,0,0,45.1,21.07Z"/></g></g></svg>